<svg xmlns="http://www.w3.org/2000/svg" viewBox="0 0 586.66 726.99">
  <defs>
    <style>
      .cls-1, .cls-2 {
        fill: none;
      }

      .cls-1 {
        stroke: #802bb1;
        stroke-linejoin: round;
        stroke-width: 2px;
      }
    </style>
  </defs>
  <g id="Layer_2" data-name="Layer 2">
    <g id="Layer_1-2" data-name="Layer 1">
      <path d="M261,127.33l.08.19,0-.2Z"/>
      <path class="cls-1" d="M438.76,642.71c19.48.76,38.68.12,57.46-5.76,19.58-6.13,37.17-15.33,45.64-35.17,6.92-16.2,7.22-32.83-3-48.46a6.21,6.21,0,0,1,.1-5.69,60.21,60.21,0,0,1,9-9.79c5.28-4.58,7.81-13.49,5.41-20.13a8.35,8.35,0,0,1,.19-4.19c1.06-5.13,3.26-10.26,3.15-15.35-.17-8.2-2.27-16.34-2.71-24.56-.28-5.2,3.59-8.08,8.31-10,5.5-2.24,11.48-4.15,16-7.77,8.33-6.69,9.89-19.85,3.13-30.69a226.06,226.06,0,0,0-21.49-28.36c-10.3-11.85-21.49-22.93-32.14-34.48-5.83-6.31-5.95-16.16-2.58-24.25,2-4.87,1.68-10.8,2.1-16.27a30.34,30.34,0,0,0-.3-9.43c-3.5-13.94-7.36-27.56-18.37-38.15-9.32-9-17.19-19.43-26.5-28.4-4-3.9-4-7.48-2.79-11.75.4-1.41,2.38-2.36,3.6-3.56,2.44-2.4,5-4.72,7.23-7.3,1.3-1.51,1.88-3.64,3.18-5.16,2.85-3.32,6-6.34,8.9-9.65,2.49-2.89,4.7-6,7-9l1-4.56c2.28-5.7,4.64-11.37,6.79-17.12a9.65,9.65,0,0,0,.19-6.12c-.21,1.33-.42,2.66-.5,3.13C509.16,142.22,496.22,112.13,467,90c1.22,2.61,1.95,4.19,2.68,5.76l2.53,3.55c-3.19-1.88-6.4-3.72-9.55-5.66a6.87,6.87,0,0,1-1.41-1.72l1.33-.51c-3.25-1.52-6.93-3-10.35-5a6.2,6.2,0,0,1-2.74-3.77c-3-15.91-9.21-20.84-25.34-20.58-3.3,0-6.67-1.3-9.93-2.26-8.07-2.37-16.13-4.77-24.09-7.46-1.26-.42-3-2.52-2.82-3.6A146.72,146.72,0,0,1,393,23.37l-2.47,2.76c1.29-6.32,6.05-7.44,10.44-9.07a7.79,7.79,0,0,0,2-1.58,21.5,21.5,0,0,0-2.4-.1c-12.17.75-15,10.56-18.56,19.46-1.59,3.95-2.49,8.17-3.75,12.42-6.69-4.49-.32-10.16-1.64-14.88q-2.07,5-4.14,10L370.75,42q1.63-8.26,3.26-16.52l-1-.7c-2.23,4.18-4.46,8.36-6.87,12.9-.74-2.09-1.6-4.55-2.5-7a3.74,3.74,0,0,0-.75-1c-.35.51-1.05,1.06-1,1.52.45,3.83,1.07,7.64,1.54,11.47.05.45-.56,1.43-.79,1.4-8.82-1-13.29-6.69-11.88-15.47,1.45-9.06,3.1-18.09,11-24.2a28.47,28.47,0,0,1,3.91-2.16l-1-1.31c-3.08,2.3-7.82,4-8.94,7-3.09,8.3-4.64,17.17-6.89,25.8-.13.52-1.06.84-1.75,1.36l2.07,3a20.46,20.46,0,0,1-3.57.44c-2.67-.17-5.35-.43-8-.81-6.3-.9-11.14,1.66-15.9,5.54-1.55,1.27-4.89.39-7.41.4-5.33,0-10.67,0-16.6,0L299.55,47c-1-.06-2.18.18-3-.24-5-2.61-10.08-5.17-14.84-8.19-1.86-1.18-2.87-3.62-4.5-5.25-.52-.51-1.82-.25-1.8-.24l5.72,7.4-1,.79a7.66,7.66,0,0,0-1.5-2.09,7.93,7.93,0,0,0-2.73-.91c-.25-.06-.77.4-.84.32-3-3.27-9.27-1.83-10.45-8.3-.91-5.05-3.88-9.73-4.79-15.24v6.78l-1.41.11c-.35-3.37-.69-6.74-1.05-10.11-.09-.78-.28-1.55-.43-2.32a12.09,12.09,0,0,0-1.26,2.55,25.06,25.06,0,0,0-.29,4l-1.19-2.8-1.89.29c.85,5.69,1.56,11.4,2.65,17,.31,1.62,1.73,3,2.6,4.56a2.38,2.38,0,0,1,.08.94,10.71,10.71,0,0,1-1.88,0c-6.07-1.11-12.09-2.75-18.2-3.2-3.28-.24-6.69,2.07-10.09,2.26s-7.32,0-10.29-1.45C205.66,28,193.93,24,181,26.64c-13.49,2.79-20.06,12.51-24.27,24.78-.47,1.38-5.14,1.4-7.9,1.86-.78.13-1.68-.41-2.77,0L149,54.8c-2.84.49-6.47.23-7,1.35-3.67,8.29-7.41-1.45-9.25-.51l2.7,4.78,1.65,2.91c-1.27.23-2.67.93-3.77.61-2.9-.83-5.68-2.11-8.65-3.27.18.68.1,2.21.81,2.83,3.46,3,.9,3.73-1.45,5.31-1.67,1.12-2.36,3.62-3.86,5.14-.85.86-2.42,1.11-3.72,1.42C109.86,77,103.24,78.47,96.62,80l-1,.51c-8.47,3.15-17,5.75-20.76,15.73-1.73,4.52-7.32,7.49-9.4,12-2.46,5.3-4.29,11.54-4,17.27.26,6-3.71,8.13-6.43,11.63-4.19,5.41-8.53,10.71-12.61,16.21a41.24,41.24,0,0,0-5.14,8.59c-1.77,4.25-2.9,8.76-4.64,14.22l1.35-1.54L22.66,184.85l1.72,1.78c.92-.81,1.82-1.63,2.75-2.42s1.6-1.24,2.4-1.86a24.12,24.12,0,0,1-.48,3.1c-1.27,4.36-2.91,8.64-3.8,13.07-.52,2.57.42,5.4.2,8.07-.31,3.75-5.45,5.8-8,3-4.2-4.44-7.9-9.35-11.84-14A7.53,7.53,0,0,0,4,194.51a5.11,5.11,0,0,0,.42,1.77c3.69,5.1,7.43,10.15,11.14,15.22a1.57,1.57,0,0,1-.56-.12c-1.36-.9-2.69-1.82-4-2.74a39.76,39.76,0,0,0,4,4c3.44,2.63,7.49,4.66,10.36,7.79,1.34,1.45,1.63,5.7.48,7.31-5.29,7.38-11.24,14.27-17,21.32a9,9,0,0,1-2.13,2.14c-2,1.18-2.9,2.08-.67,4.18.93.87,1.07,3,.92,4.53a133.49,133.49,0,0,1-2.17,15.86c-.6,2.68-4,5.21-3.71,7.53.93,8.08,1.84,16.46,4.85,23.89,1.88,4.63,7.78,7.5,11.34,11.62a17.87,17.87,0,0,1,4.15,8.42c1,6.81,1.25,13.76,1.7,20.66a4.14,4.14,0,0,1-1,2.26c-.09.13-1-.34-1.73-.59l.67,2.32-.55.34-4.8-7.68-1.05,0c.38,4.75.77,9.49,1.15,14.14l-2-3.74-1,.42q2.76,6.23,5.51,12.44l-.34.32L14.15,363l-.68.38c1.41,2.6,3,5.15,4.11,7.87.22.54-1.11,1.74-1.68,2.58.17,0,.92-.12,1.67-.12a6.71,6.71,0,0,1,2.17.19,59.63,59.63,0,0,1,.62,8.54c0,.33-2.17.63-3.47,1l1.4,1.64-1.62.37a14.17,14.17,0,0,0,1.4,1.29c2.53,1.9,6.14,3.25,7.37,5.78,1.59,3.22,1,7.44,1.83,11.12,1.17,5.2,1.68,11,4.49,15.24,3.13,4.68,6.65,10.24,13.53,11a2.7,2.7,0,0,1,1.6,2.07A26.21,26.21,0,0,1,46,437.2c-.09.42-.88,1-.8,1.1a8.59,8.59,0,0,0,1.49,1.46c1.67,1.44,6.78,1.34,2.4,5.61-.29.28,2,3,2.83,4.65,2.53,4.89,4.82,9.9,7.5,14.7,1,1.82,3.36,2.95,4.16,4.8s.34,4.13.42,5.79l2.42-.84c-.61.76-1.3,1.47-1.83,2.28-2.56,3.89-4.84,8-7.72,11.6-1,1.25-3.41,1.35-5.26,2,.25.4.33.65.41.65,1.38-.05,2.76-.13,4.13-.21-1,.77-2,1.51-3,2.3-1.58,1.27-3.13,2.56-4.71,3.87.27.26.4.47.49.46,1.09-.2,2.18-.44,3.27-.63a3,3,0,0,1,.19.63,20.67,20.67,0,0,1-3.72,1.33,48.67,48.67,0,0,0-7.43,1.51c5.54.29,11.11.94,16.63.7,2.7-.11,5.89-3.38,7.87-2.62,4.9,1.87,4.58-2,5.67-4.09,5.53,6.73-3.64,6.74-5.09,10.28l4.43-.9c-.71,1.66-1.43,3.31-1.87,4.34h3q-1.32,2.83-2.62,5.68l.74.45a44.19,44.19,0,0,1,3.2-4.74c.52-.61,1.69-.67,2.57-1a12.25,12.25,0,0,0,.43,2.28C77,512.8,78.91,515,78.8,517c-.28,4.75,2.52,2.94,4.69,2.8,3.94-.25,8.61,5.58,8.78,9.34.1,2.35,2.61,4.53,3.75,6.92,1.81,3.79,3.29,7.74,5.09,11.54a55.35,55.35,0,0,0,3.22,5.29l-.65.4,2.21,1.2c-1.17,1-2.33,2.68-3.52,2.71a19.4,19.4,0,0,1-5.34-1c.32,1.6.17,4,1.27,5.5s3.33,2.25,5.22,2.74c1.38.35,3-.29,4.54-.48-.79,1.22-2.16,2.39-2.27,3.67-.46,5.56-4.82,1.74-7,3.1l-2.57,1.68a16.76,16.76,0,0,0,2.83,1.44c2.18.63,4.47.92,6.56,1.76.34.13-.14,2.33-.29,4.12a41.46,41.46,0,0,1,3.61-2.57,11.76,11.76,0,0,1,2.7-.81,7.84,7.84,0,0,1,.12,2.3c-1.51,6.17-3.34,12.28-4.43,18.52-.18,1,2.81,2.6,4.33,3.92A3.24,3.24,0,0,0,112,600c0-.49-.49-1-.37-1.44a50.42,50.42,0,0,1,1.86-5.21c.12-.28,1.2-.49,1.26-.39a28,28,0,0,1,1.29,2.6l3.83-4.56,1.34-1.59c.54.68,1,1.59,1.65,2a10.87,10.87,0,0,0,3.59,1.2c.45.07,1-.72,1.54-1.12a11.42,11.42,0,0,1,.55,2.83c-.21,3.6-.53,7.2-.88,10.79-.24,2.48.9,3.28,2.92,4.87,2.69,2.12,3.28,6.75,5.21,10,4.81,8.24,10,16.2,18.92,20.9-.95-1.13-1.91-2.25-3.58-4.21,1.5.7,2,1.11,2.47,1.12,1.21,0,2.49,3.27,3.87-.55.51-1.41,4.91-1.5,7.59-1.9.26,0,1.14,2,1.21,3.14.15,2.42.11,4.77.06,7.21m160.72-3H438.76M327,724.71v-83m-12.1,71.85,12.76,12.76m11.65-12.71L326.3,726.22"/>
      <line class="cls-2" x1="166.32" y1="645.74" x2="327.04" y2="645.74"/>
    </g>
  </g>
</svg>
