<svg xmlns="http://www.w3.org/2000/svg" viewBox="0 0 320 319.4">
  <defs>
    <style>
      .cls-1 {
        fill: none;
        stroke: #4c495d;
        stroke-miterlimit: 10;
        stroke-width: 10px;
      }
    </style>
  </defs>
  <g id="Layer_2" data-name="Layer 2">
    <g id="Layer_1-2" data-name="Layer 1">
      <g>
        <path class="cls-1" d="M77.2,104.4H14.9a5,5,0,0,0-5,5V309.3a5,5,0,0,0,5,5H77.1a5,5,0,0,0,5-5V109.4A4.93,4.93,0,0,0,77.2,104.4Z"/>
        <path class="cls-1" d="M46.1,5a41.05,41.05,0,1,0,41,41.1A41.1,41.1,0,0,0,46.1,5Z"/>
        <path class="cls-1" d="M235.5,99.5c-25,0-43.5,10.7-54.7,23v-13a5,5,0,0,0-5-5H116.2a5,5,0,0,0-5,5V309.4a5,5,0,0,0,5,5h62.1a5,5,0,0,0,5-5V210.5c0-33.3,9.1-46.3,32.3-46.3,25.3,0,27.3,20.8,27.3,48v97.2a5,5,0,0,0,5,5H310a5,5,0,0,0,5-5V199.7C315,150.1,305.5,99.5,235.5,99.5Z"/>
      </g>
    </g>
  </g>
</svg>
