<svg xmlns="http://www.w3.org/2000/svg" viewBox="0 0 528.03 528.03">
  <defs>
    <style>
      .cls-1 {
        fill: none;
        stroke: #4c495d;
        stroke-miterlimit: 10;
        stroke-width: 15px;
      }
    </style>
  </defs>
  <g id="Layer_2" data-name="Layer 2">
    <g id="Layer_1-2" data-name="Layer 1">
      <g>
        <path class="cls-1" d="M367.7,7.5H160.34C76.06,7.5,7.5,76.06,7.5,160.34V367.7C7.5,452,76.06,520.53,160.34,520.53H367.7C452,520.53,520.53,452,520.53,367.7V160.34C520.53,76.06,452,7.5,367.7,7.5ZM468.92,367.7A101.22,101.22,0,0,1,367.7,468.92H160.34A101.23,101.23,0,0,1,59.11,367.7V160.34A101.23,101.23,0,0,1,160.34,59.11H367.7A101.23,101.23,0,0,1,468.92,160.34V367.7Z"/>
        <path class="cls-1" d="M264,131.33c-73.17,0-132.69,59.52-132.69,132.69S190.85,396.7,264,396.7,396.71,337.18,396.71,264,337.18,131.33,264,131.33Zm0,213.76A81.08,81.08,0,1,1,345.09,264,81.07,81.07,0,0,1,264,345.09Z"/>
        <circle class="cls-1" cx="396.96" cy="132.33" r="31.79"/>
      </g>
    </g>
  </g>
</svg>
