<?xml version="1.0" encoding="utf-8"?>
<!-- Generator: Adobe Illustrator 26.0.3, SVG Export Plug-In . SVG Version: 6.00 Build 0)  -->
<svg version="1.1" id="Layer_1" xmlns="http://www.w3.org/2000/svg" xmlns:xlink="http://www.w3.org/1999/xlink" x="0px" y="0px"
	 viewBox="0 0 1058.8 1188.7" style="enable-background:new 0 0 1058.8 1188.7;" xml:space="preserve">
<style type="text/css">
	.st0{fill:none;}
	.st1{fill:#4C495D;}
	.st2{fill:#802BB1;}
</style>
<g id="Layer_2_00000021105792232486432420000002206711699864361860_">
	<g id="Layer_1-2">
		<path d="M365.2,827.7L103.7,676.3V554.7L365.2,706V827.7z M156.5,705.7L364.2,826V706.6L104.7,556.4v119.3L156.5,705.7z"/>
		<polygon class="st0" points="260.5,646 208.4,615.8 156.2,585.7 104.2,555.5 104.2,676 156.2,706.2 208.4,736.3 260.5,766.5 
			312.6,796.7 364.7,826.8 364.7,706.3 312.6,676.2 		"/>
		<path class="st1" d="M416.9,616l-52.1-30.1l-52.1-30.1l-52.1-30.1l-52.1-30.1l-52.1-30.1l-52.1-30.1l-52.1-30L0,375.4v541.4
			L52.1,947l0,0l52.1,30.2V796.5l52.1,30.2l52.1,30.2l52.1,30.2l52.1,30.2l52.1,30.2v180.8l52.1,30.2l52.2,30.2V646.1L416.9,616z
			 M364.7,826.8l-52.1-30.2l-52.1-30.2l-52.1-30.2l-52.1-30.2L104.2,676V555.5l52.1,30.1l52.1,30.2l52.1,30.2l52.1,30.2l52.1,30.2
			V826.8z"/>
		<polygon class="st1" points="590.5,827.2 590.5,1188.7 694.8,1128.3 694.8,766.9 642.6,797.1 		"/>
		<polyline class="st2" points="1058.8,374.1 791.8,529.5 588.8,646.1 588.8,766.1 588.3,766.6 		"/>
		<polygon class="st1" points="965,251.9 931.5,232.6 909.8,220 909.8,220 909.7,219.9 905.1,217.3 903.7,216.5 898,213.2 
			898,213.2 896.1,212.1 892.3,209.9 892.3,209.9 864.6,193.8 853,187.1 850.9,185.9 831.1,174.4 801,157 789.5,150.3 789.5,150.3 
			764.2,135.7 748.9,126.8 746.8,125.6 730.7,116.3 699.2,98.1 699.2,98.1 695.4,95.8 695.4,95.8 694.7,95.4 663.8,77.6 644.8,66.5 
			642.6,65.3 630.3,58.2 601.7,41.6 601.7,41.6 590.9,35.4 590.5,35.1 589.7,34.6 589.6,34.6 589.6,34.6 563.3,19.4 540.6,6.2 
			529.9,0 496.3,19.4 495.1,20.1 478.9,29.4 462.8,38.7 451.3,45.4 435.1,54.7 429.2,58.1 455.5,73.3 462.7,77.5 474.3,84.2 
			496.2,96.9 507.6,103.5 512.6,106.4 529.7,116.3 529.7,116.3 559.7,133.6 563.2,135.7 578.5,144.6 596.6,155 611.8,163.8 
			630.1,174.4 630.6,174.7 663.6,193.8 663.8,193.7 663.8,193.9 682.7,204.8 697,213.2 715.9,224.1 730.5,232.5 734.7,235 
			727,234.6 717.4,234.1 669.5,231.7 665.4,231.5 665.3,231.5 661.4,231.3 661.3,231.3 653.8,230.9 653.8,230.9 653.8,230.9 
			621.5,229.2 603.7,228.3 587.9,227.5 573.6,226.8 542.1,225.2 525.7,224.4 514.5,223.8 486.3,222.4 463.8,221.2 463.8,221.2 
			441,220.1 429.8,219.5 418.9,219 381.9,217.1 367.6,216.4 357.2,215.8 333.9,214.6 302.6,213.1 302.6,213.1 294.1,212.6 
			294.1,212.6 286,212.2 238.1,209.8 234,209.6 220.7,208.9 190.1,207.4 172.3,206.4 160.9,213.1 127.3,232.4 93.8,251.8 
			60.2,271.2 127.2,309.9 135.3,314.6 160.8,329.3 187.4,344.7 194.2,348.7 213,359.5 227.7,368 261.2,387.4 265.1,389.6 
			285.9,401.6 294.7,406.8 294.7,406.8 317.2,419.7 328.2,426.1 343.7,435.1 361.7,445.5 369.2,449.9 395.1,464.8 421.3,480 
			428.6,484.2 462.1,503.5 473.4,510.1 495.5,522.9 525.4,540.2 529,542.2 562.5,522.9 569.8,518.7 596,503.5 613.5,493.4 
			629.6,484.2 610.5,473.1 596.1,464.8 580.5,455.8 580.5,455.8 562.6,445.5 562.7,445.5 559.2,443.5 545.9,435.8 545.9,435.8 
			529.2,426.1 511.9,416.1 506.4,412.9 495.7,406.8 462.2,387.4 459.8,386 454.3,382.8 428.8,368 407.7,355.9 402.2,352.7 
			395.3,348.7 361.8,329.3 355.6,325.7 367,326.3 398.5,327.9 428.6,329.4 428.8,329.3 429,329.5 446.4,330.3 476.2,331.8 
			494.4,332.8 494.4,332.8 501.3,333.1 505.8,333.3 542.3,335.2 551.8,335.7 575.9,336.9 590.2,337.6 613.5,338.8 638.1,340 
			649.3,340.6 675.1,341.9 686,342.5 722.7,344.3 733.9,344.9 736.7,345 781.8,347.3 796.1,348 798.2,348.2 829.8,349.8 
			859.8,351.3 864.2,348.7 876.1,341.9 897.8,329.4 903.6,326 919.9,316.6 931.3,310 964.9,290.7 998.4,271.3 		"/>
	</g>
</g>
</svg>
