<svg xmlns="http://www.w3.org/2000/svg" viewBox="0 0 371.17 538.02">
  <defs>
    <style>
      .cls-1 {
        fill: none;
        stroke: #802bb1;
        stroke-linejoin: round;
        stroke-width: 2px;
      }
    </style>
  </defs>
  <g id="Layer_2" data-name="Layer 2">
    <g id="Layer_1-2" data-name="Layer 1">
      <g id="Layer_2-2" data-name="Layer 2">
        <g id="Layer_1-2-2" data-name="Layer 1-2">
          <path d="M165.15,80.82l0,.12v-.13Z"/>
          <path class="cls-1" d="M277.4,406.27c12.3.48,24.42.08,36.28-3.64,12.37-3.87,23.47-9.68,28.82-22.2,4.37-10.23,4.56-20.74-1.89-30.61a3.92,3.92,0,0,1,.06-3.59,37.88,37.88,0,0,1,5.69-6.18,12.44,12.44,0,0,0,3.41-12.71,5.41,5.41,0,0,1,.12-2.65c.67-3.24,2.06-6.48,2-9.69-.11-5.18-1.43-10.32-1.71-15.51-.18-3.29,2.27-5.1,5.25-6.32,3.47-1.41,7.25-2.62,10.1-4.9,5.26-4.23,6.25-12.54,2-19.38A143.33,143.33,0,0,0,353.93,251c-6.51-7.48-13.57-14.48-20.3-21.78-3.68-4-3.76-10.2-1.63-15.31,1.26-3.07,1.06-6.82,1.33-10.27a19.22,19.22,0,0,0-.19-6c-2.21-8.8-4.65-17.4-11.6-24.09-5.89-5.68-10.86-12.27-16.74-17.93-2.52-2.47-2.52-4.73-1.76-7.42.25-.89,1.5-1.49,2.28-2.25,1.54-1.52,3.15-3,4.56-4.61.82-1,1.19-2.3,2-3.26,1.8-2.1,3.79-4,5.62-6.09,1.57-1.83,3-3.79,4.42-5.69l.63-2.88c1.44-3.6,2.93-7.18,4.29-10.81a6.07,6.07,0,0,0,.12-3.86c-.13.84-.27,1.68-.32,2-4.8-20.53-13-39.53-31.42-53.5.77,1.64,1.23,2.64,1.69,3.63l1.6,2.25c-2-1.19-4-2.35-6-3.58a4.47,4.47,0,0,1-.89-1.09l.84-.32c-2.05-1-4.38-1.89-6.54-3.15a4,4,0,0,1-1.73-2.39c-1.89-10-5.81-13.16-16-13-2.08,0-4.21-.82-6.27-1.43-5.09-1.5-10.18-3-15.21-4.71-.8-.26-1.9-1.59-1.78-2.27a92.63,92.63,0,0,1,3.59-16l-1.56,1.74c.82-4,3.82-4.69,6.59-5.72a5.15,5.15,0,0,0,1.27-1c-.51,0-1-.07-1.52-.07-7.68.48-9.47,6.67-11.72,12.29-1,2.5-1.57,5.16-2.37,7.85-4.22-2.84-.2-6.42-1-9.4l-2.62,6.31-1.09-.24,2.06-10.43-.63-.44c-1.41,2.64-2.82,5.28-4.34,8.15-.47-1.32-1-2.88-1.58-4.42a2.26,2.26,0,0,0-.47-.63c-.22.32-.67.66-.63.95.28,2.42.67,4.83,1,7.25,0,.28-.36.9-.5.88-5.57-.63-8.39-4.22-7.5-9.77.91-5.72,1.95-11.42,6.94-15.28a18.58,18.58,0,0,1,2.47-1.36L230.61,1c-1.94,1.45-4.94,2.53-5.64,4.42-2,5.24-2.93,10.84-4.36,16.29-.08.33-.66.53-1.1.86l1.31,1.9a13.16,13.16,0,0,1-2.26.27c-1.68-.1-3.38-.27-5.05-.51-4-.57-7,1.05-10,3.5-1,.8-3.09.25-4.68.25H188.31l1.18,2.11a5.13,5.13,0,0,1-1.9-.15c-3.15-1.65-6.36-3.26-9.37-5.17-1.17-.75-1.81-2.29-2.84-3.32-.33-.32-1.15-.15-1.13-.15L177.86,26l-.63.49a4.93,4.93,0,0,0-.95-1.32,5,5,0,0,0-1.73-.57c-.15,0-.48.25-.53.2-1.89-2.06-5.85-1.15-6.59-5.24-.58-3.19-2.45-6.14-3-9.62V14.2l-.89.07-.66-6.39c-.06-.49-.18-1-.27-1.46a7.33,7.33,0,0,0-.8,1.61,15.18,15.18,0,0,0-.18,2.52l-.75-1.76-1.2.18c.54,3.59,1,7.2,1.68,10.73.19,1,1.09,1.9,1.64,2.88a1.75,1.75,0,0,1,.05.6,7.88,7.88,0,0,1-1.19,0c-3.83-.7-7.63-1.74-11.49-2-2.07-.15-4.23,1.3-6.37,1.42a13.76,13.76,0,0,1-6.5-.91c-7.27-3.58-14.68-6.1-22.84-4.43C106.11,19,102,25.14,99.3,32.88c-.3.87-3.24.89-5,1.18-.49.08-1.06-.26-1.75,0l1.86,1c-1.79.31-4.09.14-4.42.85-2.32,5.24-4.68-.92-5.84-.32l1.7,3,1,1.83c-.81.15-1.69.59-2.39.39-1.83-.52-3.58-1.33-5.46-2.07.12.43.07,1.4.51,1.79,2.19,1.9.57,2.36-.91,3.35-1.06.71-1.49,2.29-2.44,3.25a5.12,5.12,0,0,1-2.35.9c-4.17,1-8.35,2-12.53,2.92l-.63.32c-5.35,2-10.73,3.63-13.11,9.94C46.51,64,43,65.92,41.67,68.76a24.14,24.14,0,0,0-2.53,10.91c.16,3.79-2.34,5.13-4.06,7.34-2.65,3.42-5.39,6.77-8,10.24a26.15,26.15,0,0,0-3.25,5.42c-1.12,2.69-1.83,5.54-2.93,9l.85-1-7.15,6.46,1.08,1.13c.59-.52,1.15-1,1.74-1.53s1-.79,1.52-1.18a14.28,14.28,0,0,1-.31,2c-.8,2.75-1.83,5.46-2.4,8.25-.32,1.63.27,3.41.13,5.1-.2,2.37-3.44,3.66-5,1.89-2.65-2.8-5-5.9-7.48-8.84a4.65,4.65,0,0,0-1-.68,3.53,3.53,0,0,0,.27,1.12c2.33,3.22,4.69,6.41,7,9.61a1,1,0,0,1-.35-.07q-1.29-.85-2.52-1.74a24.08,24.08,0,0,0,2.52,2.53c2.17,1.66,4.73,2.94,6.54,4.92a4.84,4.84,0,0,1,.31,4.62c-3.34,4.66-7.1,9-10.74,13.46A5.73,5.73,0,0,1,4.57,159c-1.27.75-1.84,1.31-.43,2.64a3.86,3.86,0,0,1,.58,2.86,82.63,82.63,0,0,1-1.37,10C3,176.25.83,177.85,1,179.31c.59,5.1,1.16,10.4,3.06,15.09,1.19,2.92,4.92,4.73,7.16,7.34a11.24,11.24,0,0,1,2.63,5.31c.63,4.3.78,8.69,1.07,13a2.62,2.62,0,0,1-.63,1.43c-.06.08-.63-.22-1.1-.38l.43,1.47-.35.21-3-4.85H9.59c.24,3,.48,6,.72,8.93l-1.26-2.36-.63.27,3.48,7.85-.22.2-2.42-3.23-.42.24a51,51,0,0,1,2.59,5c.14.34-.7,1.1-1.06,1.63.11,0,.58-.08,1.05-.08a4.49,4.49,0,0,1,1.37.12,39,39,0,0,1,.4,5.4c0,.2-1.37.39-2.2.63l.89,1-1,.24a8.45,8.45,0,0,0,.88.81c1.6,1.2,3.88,2.05,4.65,3.65,1,2,.64,4.7,1.16,7,.74,3.29,1.06,6.95,2.83,9.63,2,2.95,4.2,6.46,8.55,6.94a1.72,1.72,0,0,1,1,1.31,17.07,17.07,0,0,1-.56,3.32c-.06.26-.56.63-.51.69a5.45,5.45,0,0,0,.94.92c1.06.91,4.28.85,1.52,3.55-.18.17,1.26,1.89,1.79,2.93,1.59,3.09,3,6.25,4.73,9.28.63,1.15,2.12,1.87,2.63,3s.21,2.6.26,3.65l1.53-.53c-.38.48-.82.93-1.15,1.44-1.62,2.46-3.06,5-4.88,7.33-.63.79-2.15.85-3.32,1.26.16.25.21.41.26.41.87,0,1.74-.08,2.61-.13-.63.48-1.27,1-1.9,1.45-1,.8-2,1.62-3,2.44.17.17.25.3.31.29.69-.12,1.37-.27,2.06-.39a1.36,1.36,0,0,1,.12.39,12.18,12.18,0,0,1-2.35.84,31.46,31.46,0,0,0-4.69,1c3.5.18,7,.59,10.5.44,1.71-.07,3.72-2.13,5-1.66,3.1,1.19,2.89-1.26,3.58-2.58,3.5,4.25-2.3,4.26-3.21,6.49l2.8-.56c-.45,1-.91,2.09-1.18,2.74h1.89c-.56,1.19-1.11,2.38-1.65,3.58l.46.29a30.26,30.26,0,0,1,2-3c.33-.38,1.07-.42,1.63-.63a7,7,0,0,0,.27,1.44c.5,1.37,1.71,2.76,1.64,4-.18,3,1.59,1.85,3,1.77,2.49-.16,5.44,3.52,5.55,5.89.06,1.49,1.64,2.87,2.36,4.37,1.15,2.4,2.08,4.89,3.22,7.29a33.39,33.39,0,0,0,2,3.34l-.41.25,1.4.76c-.74.63-1.47,1.69-2.23,1.71a12.16,12.16,0,0,1-3.37-.63c.2,1,.11,2.53.8,3.48a6,6,0,0,0,3.3,1.73,8.56,8.56,0,0,0,2.87-.31c-.5.77-1.37,1.51-1.44,2.32-.29,3.51-3,1.1-4.42,2l-1.62,1.06a10.75,10.75,0,0,0,1.79.91c1.37.4,2.82.58,4.14,1.11.21.08-.09,1.47-.18,2.6a26.1,26.1,0,0,1,2.28-1.62,7.1,7.1,0,0,1,1.7-.51,5,5,0,0,1,.08,1.45c-1,3.9-2.11,7.75-2.8,11.69-.11.64,1.77,1.65,2.73,2.48a1.86,1.86,0,0,0,.22-.69c0-.31-.3-.63-.23-.91A30,30,0,0,1,72,375.1c.07-.17.75-.31.79-.24.3.53.57,1.08.82,1.64L76,373.62l.85-1a5.57,5.57,0,0,0,1,1.27,6.82,6.82,0,0,0,2.27.75c.28.05.63-.45,1-.7a7.29,7.29,0,0,1,.35,1.78c-.13,2.28-.34,4.55-.56,6.82-.15,1.56.57,2.07,1.85,3.07,1.7,1.34,2.07,4.27,3.29,6.32,3,5.2,6.31,10.23,12,13.2-.6-.72-1.21-1.42-2.27-2.66.95.44,1.27.7,1.56.7.77,0,1.58,2.07,2.45-.34.32-.89,3.1-.95,4.79-1.2a3.91,3.91,0,0,1,.77,2c.09,1.53.06,3,0,4.55m101.49-1.89H277.4m-70.58,51.79V405.28"/>
        </g>
      </g>
      <polyline class="cls-1" points="206.82 458.05 206.82 537.02 216.25 527.6"/>
      <line class="cls-1" x1="206.82" y1="537.02" x2="197.4" y2="527.6"/>
    </g>
  </g>
</svg>
